<?xml version="1.0" encoding="utf-8"?>
<!-- Generator: Adobe Illustrator 27.5.0, SVG Export Plug-In . SVG Version: 6.00 Build 0)  -->
<svg version="1.1" xmlns="http://www.w3.org/2000/svg" xmlns:xlink="http://www.w3.org/1999/xlink" x="0px" y="0px"
	 viewBox="0 0 500 500" style="enable-background:new 0 0 500 500;" xml:space="preserve">
<g id="BACKGROUND">
	<g>
		<rect style="fill:#FFFFFF;" width="500" height="500"/>
	</g>
</g>
<g id="OBJECTS">
	<g>
		<g>
			<g>
				
					<linearGradient id="SVGID_1_" gradientUnits="userSpaceOnUse" x1="204.7946" y1="139.8593" x2="269.1513" y2="274.5722" gradientTransform="matrix(0.9991 0.0432 -0.0432 0.9991 8.5812 -9.9798)">
					<stop  offset="0.0056" style="stop-color:#A5DFF2"/>
					<stop  offset="1" style="stop-color:#0091BF"/>
				</linearGradient>
				<path style="fill:url(#SVGID_1_);" d="M350.866,188.698c0,0-12.484-14.718-37.788-26.679c0.134-5.208-3.925-9.585-9.152-9.811
					c-0.278-0.012-0.553-0.006-0.826,0.006c0.167-0.839,0.292-1.694,0.33-2.575c0.402-9.296-6.808-17.158-16.104-17.559
					c-7.2-0.311-13.522,3.953-16.202,10.207c-1.306-0.667-2.768-1.079-4.328-1.146c-4.476-0.193-8.411,2.438-10.107,6.308
					c-2.596-0.195-5.243-0.34-7.947-0.424c-0.586-2.741-2.954-4.851-5.885-4.978c-3.128-0.135-5.814,2.036-6.434,5.003
					c-31.248,1.072-68.992,9.893-113.355,32.585c-1.375,0.703-1.542,3.608-0.606,4.836c0.937,1.228,2.527,1.715,3.999,2.18
					c1.473,0.465,3.053,1.076,3.823,2.414c1.127,1.956-0.012,4.429-1.378,6.227c-1.366,1.797-3.058,3.623-3.095,5.88
					c-0.058,3.554,3.929,5.732,7.431,6.343c3.501,0.611,7.446,0.645,10.003,3.113c3.004,2.899,2.637,7.89,0.961,11.713
					c-1.676,3.823-4.404,7.167-5.66,11.148c-1.256,3.981-0.424,9.174,3.344,10.97c1.052,0.501,2.255,0.699,3.203,1.377
					c1.79,1.282,2.087,3.78,2.225,5.977c0.271,4.294,0.323,9.186-2.78,12.166c-1.131,1.087-2.626,1.84-3.428,3.187
					c-0.803,1.348-0.463,4.668,0.999,4.098c26.87-10.476,51.317-14.94,72.022-16.22c0.74,6.786,6.323,12.205,13.353,12.509
					c5.953,0.257,11.189-3.233,13.461-8.373c1.311,1.248,3.057,2.051,5.007,2.135c3.432,0.148,6.435-1.959,7.587-5.006
					c18.599,2.447,29.327,6.704,29.327,6.704L350.866,188.698z"/>
				
					<linearGradient id="SVGID_00000059990403989505549560000006426595163301495221_" gradientUnits="userSpaceOnUse" x1="203.284" y1="263.563" x2="207.71" y2="269.6141" gradientTransform="matrix(0.9991 0.0432 -0.0432 0.9991 8.5812 -9.9798)">
					<stop  offset="0.0056" style="stop-color:#A5DFF2"/>
					<stop  offset="1" style="stop-color:#0091BF"/>
				</linearGradient>
				<path style="fill:url(#SVGID_00000059990403989505549560000006426595163301495221_);" d="M202.628,261.627
					c-2.073-0.09-3.826,1.518-3.916,3.592c-0.09,2.073,1.518,3.827,3.592,3.916c2.073,0.09,3.827-1.518,3.916-3.592
					S204.702,261.716,202.628,261.627z"/>
				
					<linearGradient id="SVGID_00000100362252399802036760000011974192675548448410_" gradientUnits="userSpaceOnUse" x1="300.5931" y1="89.9491" x2="368.2233" y2="229.027" gradientTransform="matrix(0.9991 0.0432 -0.0432 0.9991 8.5812 -9.9798)">
					<stop  offset="0.0056" style="stop-color:#A5DFF2"/>
					<stop  offset="1" style="stop-color:#0091BF"/>
				</linearGradient>
				<path style="fill:url(#SVGID_00000100362252399802036760000011974192675548448410_);" d="M336.795,152.415
					c-0.145,3.344-2.972,5.937-6.316,5.793c-3.344-0.145-5.938-2.972-5.793-6.316c0.145-3.344,2.973-5.938,6.316-5.793
					C334.346,146.244,336.939,149.072,336.795,152.415z"/>
				
					<linearGradient id="SVGID_00000098927190286471549120000007033658466226342580_" gradientUnits="userSpaceOnUse" x1="222.276" y1="128.0347" x2="289.9054" y2="267.1111" gradientTransform="matrix(0.9991 0.0432 -0.0432 0.9991 8.5812 -9.9798)">
					<stop  offset="0.0056" style="stop-color:#A5DFF2"/>
					<stop  offset="1" style="stop-color:#0091BF"/>
				</linearGradient>
				<path style="fill:url(#SVGID_00000098927190286471549120000007033658466226342580_);" d="M230.794,134.853
					c-0.061,1.404-1.249,2.494-2.653,2.433c-1.404-0.061-2.494-1.248-2.433-2.653s1.248-2.494,2.653-2.433
					C229.765,132.261,230.854,133.449,230.794,134.853z"/>
			</g>
			
				<linearGradient id="SVGID_00000044873967801493045590000015977503583081750424_" gradientUnits="userSpaceOnUse" x1="241.8484" y1="197.7746" x2="395.1121" y2="280.5593" gradientTransform="matrix(0.9991 0.0432 -0.0432 0.9991 8.5812 -9.9798)">
				<stop  offset="0.0056" style="stop-color:#A5DFF2"/>
				<stop  offset="1" style="stop-color:#0091BF"/>
			</linearGradient>
			<path style="fill:url(#SVGID_00000044873967801493045590000015977503583081750424_);" d="M350.866,188.698
				c0,0-0.42-0.493-1.251-1.365l-17.232,16.18c-29.934-16.685-96.369-38.771-203.861,2.161c1.38,0.936,3.1,1.559,4.721,1.841
				c3.501,0.611,7.446,0.645,10.003,3.113c0.624,0.602,1.095,1.298,1.447,2.051c29.56-7.429,97.188-17.741,158.474,21.172
				l-22.16,28.497c1.223,0.415,1.859,0.667,1.859,0.667l24.3-26.557l0,0l28.445-31.087l0,0L350.866,188.698z"/>
		</g>
		<g>
			
				<linearGradient id="SVGID_00000135656581205728921920000013809254602022483087_" gradientUnits="userSpaceOnUse" x1="335.7258" y1="257.7664" x2="367.6145" y2="257.7664">
				<stop  offset="0" style="stop-color:#1D70AC"/>
				<stop  offset="1" style="stop-color:#053F71"/>
			</linearGradient>
			<path style="fill:url(#SVGID_00000135656581205728921920000013809254602022483087_);" d="M364.624,259.727l-23.402-17.104
				l-2.084,3.611l-3.412,2.396l19.111,21.794c2.865,3.267,7.932,3.32,10.865,0.115l0,0
				C368.635,267.334,368.132,262.291,364.624,259.727z M361.038,266.272c-0.865,0.945-2.332,1.01-3.277,0.145
				c-0.945-0.865-1.01-2.332-0.145-3.277c0.865-0.945,2.332-1.01,3.277-0.145C361.837,263.86,361.902,265.327,361.038,266.272z"/>
			
				<linearGradient id="SVGID_00000043432036270963320570000017061325855255337889_" gradientUnits="userSpaceOnUse" x1="-47.5172" y1="743.7725" x2="-47.5172" y2="751.05" gradientTransform="matrix(0.6751 -0.7377 0.7377 0.6751 -177.2542 -290.7487)">
				<stop  offset="0" style="stop-color:#1D70AC"/>
				<stop  offset="1" style="stop-color:#053F71"/>
			</linearGradient>
			<path style="opacity:0.45;fill:url(#SVGID_00000043432036270963320570000017061325855255337889_);" d="M346.461,246.452
				l-5.238-3.829l-2.084,3.611l-3.412,2.396l4.278,4.878C343.062,252.189,345.417,249.615,346.461,246.452z"/>
			
				<linearGradient id="SVGID_00000003098679986070089840000008571068618307459257_" gradientUnits="userSpaceOnUse" x1="-47.5194" y1="734.6722" x2="-47.5194" y2="717.1122" gradientTransform="matrix(0.6751 -0.7377 0.7377 0.6751 -177.2542 -290.7487)">
				<stop  offset="0" style="stop-color:#1D70AC"/>
				<stop  offset="1" style="stop-color:#053F71"/>
			</linearGradient>
			<polygon style="fill:url(#SVGID_00000003098679986070089840000008571068618307459257_);" points="364.836,201.481 
				296.838,275.797 282.867,263.014 350.866,188.698 			"/>
			
				<linearGradient id="SVGID_00000011017852538642803550000011286894167370310829_" gradientUnits="userSpaceOnUse" x1="-47.5199" y1="717.386" x2="-47.5199" y2="736.8566" gradientTransform="matrix(0.6751 -0.7377 0.7377 0.6751 -177.2542 -290.7487)">
				<stop  offset="0" style="stop-color:#1D70AC"/>
				<stop  offset="1" style="stop-color:#053F71"/>
			</linearGradient>
			<polygon style="fill:url(#SVGID_00000011017852538642803550000011286894167370310829_);" points="355.274,192.731 
				287.275,267.047 282.867,263.014 350.866,188.698 			"/>
			
				<linearGradient id="SVGID_00000060733479334737467520000003206020587026154426_" gradientUnits="userSpaceOnUse" x1="-47.5187" y1="725.8459" x2="-47.5187" y2="749.0808" gradientTransform="matrix(0.6751 -0.7377 0.7377 0.6751 -177.2542 -290.7487)">
				<stop  offset="0" style="stop-color:#1D70AC"/>
				<stop  offset="1" style="stop-color:#053F71"/>
			</linearGradient>
			<path style="fill:url(#SVGID_00000060733479334737467520000003206020587026154426_);" d="M320.051,236.56l-6.559,13.206
				c-1.173,2.361,0.823,5.058,3.424,4.626l17.318-2.876c5.305-0.881,9.322-5.271,9.729-10.633l1.33-17.505
				c0.2-2.629-2.663-4.379-4.911-3.001l-12.572,7.703C324.478,230.121,321.789,233.06,320.051,236.56z"/>
		</g>
		<g>
			<path style="fill:#FFFFFF;" d="M249.172,226.121c-0.054,1.254-1.115,2.227-2.369,2.172s-2.227-1.115-2.172-2.369
				c0.054-1.254,1.115-2.227,2.369-2.172C248.254,223.806,249.226,224.867,249.172,226.121z"/>
			<path style="fill:#FFFFFF;" d="M195.778,177.318c-0.126,2.909-2.586,5.166-5.495,5.04c-2.909-0.126-5.165-2.586-5.04-5.495
				c0.126-2.909,2.586-5.166,5.495-5.04C193.647,171.949,195.904,174.409,195.778,177.318z"/>
			<g>
				<path style="fill:#FFFFFF;" d="M270.98,235.222c-0.142,3.277-2.913,5.819-6.19,5.677c-3.277-0.142-5.819-2.913-5.677-6.19
					c0.142-3.277,2.913-5.819,6.19-5.677S271.122,231.945,270.98,235.222z"/>
				<path style="fill:#FFFFFF;" d="M273.284,232.44c-0.054,1.254-1.115,2.227-2.369,2.172c-1.254-0.054-2.227-1.115-2.172-2.369
					c0.054-1.254,1.115-2.227,2.369-2.172C272.365,230.126,273.338,231.186,273.284,232.44z"/>
			</g>
			<path style="fill:#FFFFFF;" d="M315.157,194.124c-0.095,2.207-1.962,3.919-4.169,3.823c-2.207-0.095-3.919-1.962-3.823-4.169
				c0.095-2.207,1.962-3.919,4.169-3.823C313.54,190.05,315.252,191.917,315.157,194.124z"/>
			<path style="fill:#FFFFFF;" d="M289.361,180.452c-0.061,1.404-1.248,2.494-2.653,2.433c-1.405-0.061-2.494-1.248-2.433-2.653
				c0.061-1.404,1.248-2.494,2.653-2.433C288.332,177.86,289.422,179.048,289.361,180.452z"/>
			<path style="fill:#FFFFFF;" d="M165.186,243.752c-0.04,0.936-0.832,1.662-1.768,1.622c-0.936-0.04-1.663-0.832-1.622-1.769
				c0.04-0.936,0.832-1.662,1.769-1.622C164.5,242.024,165.226,242.816,165.186,243.752z"/>
			<path style="fill:#FFFFFF;" d="M189.046,225.008c-0.072,1.672-1.486,2.969-3.158,2.896c-1.672-0.072-2.969-1.486-2.897-3.158
				c0.072-1.672,1.486-2.969,3.158-2.896C187.822,221.923,189.118,223.337,189.046,225.008z"/>
			<path style="fill:#FFFFFF;" d="M197.52,174.906c-0.043,1.003-0.892,1.781-1.895,1.738c-1.003-0.043-1.781-0.892-1.738-1.895
				c0.043-1.003,0.892-1.781,1.895-1.738C196.785,173.055,197.563,173.903,197.52,174.906z"/>
			<path style="fill:#FFFFFF;" d="M187.043,175.909c-0.072,1.672-1.486,2.969-3.158,2.897c-1.672-0.072-2.969-1.486-2.896-3.158
				c0.072-1.672,1.486-2.969,3.158-2.896C185.819,172.823,187.116,174.237,187.043,175.909z"/>
		</g>
	</g>
</g>
<g id="TEXTS">
	<g>
		<g>
			<text transform="matrix(1 0 0 1 109.1047 327.9752)"><tspan x="0" y="0" style="fill:#053F71; font-family:'Roboto-BlackItalic'; font-size:46.465px;">Magic </tspan><tspan x="130.053" y="0" style="fill:#0095C5; font-family:'Roboto-BlackItalic'; font-size:46.465px;">Cleaner</tspan></text>
		</g>
		<g>
			
				<text transform="matrix(1 0 0 1 155.1926 362.2451)" style="fill:#78858F; font-family:'Roboto-Regular'; font-size:21px; letter-spacing:2;">Tagline goes here</text>
		</g>
	</g>
</g>
</svg>
